<svg width="13" height="19" viewBox="0 0 13 19" fill="none" xmlns="http://www.w3.org/2000/svg">
<path d="M11.3945 17.5992C10.6166 17.9258 8.52642 18.021 7.78528 18.021C4.33972 18.021 2.02111 18.2486 0.932233 13.8779C0.85132 13.4926 0.818487 13.0986 0.834511 12.7051C0.834511 9.34381 2.60488 7.87918 4.27626 6.96362C5.04913 6.50713 5.85373 6.17923 6.46924 5.82176C7.01368 5.49514 7.24084 5.19938 7.24084 4.84448C7.24084 4.09481 5.98445 3.99708 5.43748 3.79648C4.72806 3.5393 4.15189 3.14582 4.15189 2.26499C4.15189 1.15526 5.98445 0.799072 6.81697 0.799072C11.3958 0.799072 12.2626 4.68246 12.2626 8.20194C12.2626 10.1308 12.7778 12.0532 12.7778 13.9769C12.7762 14.7115 12.7001 15.444 12.5507 16.1629C12.0672 16.6207 12.0976 17.2675 11.3945 17.5992ZM4.209 12.5071C4.209 13.5487 4.88669 14.5915 5.79155 14.5915C7.56065 14.5915 8.74978 13.159 8.68505 11.2984C8.62287 9.63442 7.27384 9.43639 6.62533 9.43639C5.63037 9.43639 4.209 11.3652 4.209 12.5071Z" fill="#03973D"/>
</svg>
