<svg width="15" height="19" viewBox="0 0 15 19" fill="none" xmlns="http://www.w3.org/2000/svg">
<path d="M8.00182 10.5166C6.47892 10.5166 4.97125 11.6893 4.97125 13.1899C4.97125 16.2581 9.21887 16.1282 11.7608 15.8016V17.2032C10.507 18.0519 9.24679 18.4762 7.96375 18.4762C2.97499 18.4762 0.656371 13.9409 0.656371 9.57273C0.656371 5.58648 3.26561 0.957276 7.77339 0.957276C11.4436 0.957276 14.4995 4.28644 14.4995 7.97309C14.4995 9.14453 12.733 10.9088 11.639 10.9088C10.4055 10.9126 9.21887 10.5166 8.00182 10.5166ZM5.42051 6.40173C5.42051 6.95595 6.90026 8.19426 7.64267 8.19426C8.54118 8.19426 9.99047 6.92509 9.99047 6.0764C9.99047 5.03226 8.70362 3.92382 7.64267 3.92382C6.29364 3.92897 5.42051 4.97182 5.42051 6.41202V6.40173Z" fill="#03973D"/>
</svg>
