<svg width="78" height="25" viewBox="0 0 78 25" fill="none" xmlns="http://www.w3.org/2000/svg">
<path d="M60.7774 24.5633C60.4538 24.5633 60.0706 24.3678 59.7482 24.3061C57.8814 21.8899 58.7152 19.1522 58.7152 16.3786C58.7152 15.7948 58.8421 13.0867 58.1377 13.0867C55.3699 13.0867 56.361 18.499 56.361 20.1308C56.361 21.0798 55.7811 24.4681 54.4333 24.4681C51.9256 24.4681 52.5969 18.4694 52.5969 16.9354C52.5969 16.052 52.8254 12.9568 51.5017 12.9568C50.2466 12.9568 49.89 15.1428 49.89 16.1188C49.89 17.5886 50.2149 19.0558 50.2149 20.5539C50.2149 21.8282 49.6971 24.5684 48.0244 24.5684C47.0878 24.5684 46.3848 21.4681 46.2477 18.0451C46.1208 14.8818 46.2147 11.4871 46.2147 10.5754C46.2147 8.97572 47.3747 8.55266 48.4991 8.55266C50.9776 8.55266 53.4244 7.93286 55.9042 7.93286C61.8574 7.93286 62.5998 12.2702 62.5998 17.0318C62.5998 17.6863 62.6938 19.448 62.5681 21.0798C62.4184 22.9662 61.8054 24.5633 60.7774 24.5633Z" fill="#03973D"/>
<path d="M22.5853 23.5993C20.5903 23.5993 18.7539 22.9474 18.5242 20.3023C18.2704 17.6289 18.1702 14.854 18.1702 12.1459C18.1702 9.18062 18.3339 4.71087 18.8136 1.61188C19.1689 1.22611 19.7794 0.666748 20.2933 0.666748L20.7134 0.82877C21.65 3.04693 21.9051 6.70014 21.9051 8.75756C21.9051 11.1352 21.6183 13.4871 21.6183 15.83C21.6183 19.5475 23.1627 20.3653 24.7059 20.5877C25.5423 20.7536 26.3811 20.688 27.0271 20.7536C27.9586 20.8526 28.4751 21.2114 28.5081 21.9932C28.635 22.811 27.6058 23.3948 26.126 23.526C24.9407 23.6623 23.4876 23.5993 22.5853 23.5993Z" fill="#03973D"/>
<path d="M7.34545 16.5593C5.82255 16.5593 4.31488 17.732 4.31488 19.2326C4.31488 22.3008 8.5625 22.1709 11.1044 21.8443V23.2459C9.85063 24.0946 8.59042 24.5189 7.30738 24.5189C2.31862 24.5189 0 19.9836 0 15.6155C0 11.6292 2.60924 7 7.11702 7C10.7872 7 13.8431 10.3292 13.8431 14.0158C13.8431 15.1873 12.0766 16.9515 10.9826 16.9515C9.74913 16.9553 8.5625 16.5593 7.34545 16.5593ZM4.76414 12.4445C4.76414 12.9987 6.24389 14.237 6.9863 14.237C7.88481 14.237 9.3341 12.9678 9.3341 12.1191C9.3341 11.075 8.04725 9.96654 6.9863 9.96654C5.63727 9.97169 4.76414 11.0145 4.76414 12.4547V12.4445Z" fill="#03973D"/>
<path d="M40.3945 23.5992C39.6166 23.9258 37.5264 24.021 36.7853 24.021C33.3397 24.021 31.0211 24.2486 29.9322 19.8779C29.8513 19.4926 29.8185 19.0986 29.8345 18.7051C29.8345 15.3438 31.6049 13.8792 33.2763 12.9636C34.0491 12.5071 34.8537 12.1792 35.4692 11.8218C36.0137 11.4951 36.2408 11.1994 36.2408 10.8445C36.2408 10.0948 34.9845 9.99708 34.4375 9.79648C33.7281 9.5393 33.1519 9.14582 33.1519 8.26499C33.1519 7.15526 34.9845 6.79907 35.817 6.79907C40.3958 6.79907 41.2626 10.6825 41.2626 14.2019C41.2626 16.1308 41.7778 18.0532 41.7778 19.9769C41.7762 20.7115 41.7001 21.444 41.5507 22.1629C41.0672 22.6207 41.0976 23.2675 40.3945 23.5992ZM33.209 18.5071C33.209 19.5487 33.8867 20.5915 34.7916 20.5915C36.5607 20.5915 37.7498 19.159 37.6851 17.2984C37.6229 15.6344 36.2738 15.4364 35.6253 15.4364C34.6304 15.4364 33.209 17.3652 33.209 18.5071Z" fill="#03973D"/>
<path d="M40.3945 23.5992C39.6166 23.9258 37.5264 24.021 36.7853 24.021C33.3397 24.021 31.0211 24.2486 29.9322 19.8779C29.8513 19.4926 29.8185 19.0986 29.8345 18.7051C29.8345 15.3438 31.6049 13.8792 33.2763 12.9636C34.0491 12.5071 34.8537 12.1792 35.4692 11.8218C36.0137 11.4951 36.2408 11.1994 36.2408 10.8445C36.2408 10.0948 34.9845 9.99708 34.4375 9.79648C33.7281 9.5393 33.1519 9.14582 33.1519 8.26499C33.1519 7.15526 34.9845 6.79907 35.817 6.79907C40.3958 6.79907 41.2626 10.6825 41.2626 14.2019C41.2626 16.1308 41.7778 18.0532 41.7778 19.9769C41.7762 20.7115 41.7001 21.444 41.5507 22.1629C41.0672 22.6207 41.0976 23.2675 40.3945 23.5992ZM33.209 18.5071C33.209 19.5487 33.8867 20.5915 34.7916 20.5915C36.5607 20.5915 37.7498 19.159 37.6851 17.2984C37.6229 15.6344 36.2738 15.4364 35.6253 15.4364C34.6304 15.4364 33.209 17.3652 33.209 18.5071Z" fill="#03973D"/>
<path d="M76.3945 22.5992C75.6166 22.9258 73.5264 23.021 72.7853 23.021C69.3397 23.021 67.0211 23.2486 65.9322 18.8779C65.8513 18.4926 65.8185 18.0986 65.8345 17.7051C65.8345 14.3438 67.6049 12.8792 69.2763 11.9636C70.0491 11.5071 70.8537 11.1792 71.4692 10.8218C72.0137 10.4951 72.2408 10.1994 72.2408 9.84448C72.2408 9.09481 70.9845 8.99708 70.4375 8.79648C69.7281 8.5393 69.1519 8.14582 69.1519 7.26499C69.1519 6.15526 70.9845 5.79907 71.817 5.79907C76.3958 5.79907 77.2626 9.68246 77.2626 13.2019C77.2626 15.1308 77.7778 17.0532 77.7778 18.9769C77.7762 19.7115 77.7001 20.444 77.5507 21.1629C77.0672 21.6207 77.0976 22.2675 76.3945 22.5992ZM69.209 17.5071C69.209 18.5487 69.8867 19.5915 70.7916 19.5915C72.5607 19.5915 73.7498 18.159 73.6851 16.2984C73.6229 14.6344 72.2738 14.4364 71.6253 14.4364C70.6304 14.4364 69.209 16.3652 69.209 17.5071Z" fill="#03973D"/>
</svg>
