<svg width="11" height="24" viewBox="0 0 11 24" fill="none" xmlns="http://www.w3.org/2000/svg">
<path d="M4.5853 23.5993C2.59031 23.5993 0.753944 22.9474 0.52424 20.3023C0.270424 17.6289 0.170169 14.854 0.170169 12.1459C0.170169 9.18062 0.333881 4.71087 0.813595 1.61188C1.16894 1.22611 1.77936 0.666748 2.29334 0.666748L2.71341 0.82877C3.64999 3.04693 3.90508 6.70014 3.90508 8.75756C3.90508 11.1352 3.61826 13.4871 3.61826 15.83C3.61826 19.5475 5.16274 20.3653 6.70594 20.5877C7.54227 20.7536 8.38113 20.688 9.02709 20.7536C9.9586 20.8526 10.4751 21.2114 10.5081 21.9932C10.635 22.811 9.6058 23.3948 8.12605 23.526C6.94072 23.6623 5.48762 23.5993 4.5853 23.5993Z" fill="#03973D"/>
</svg>
