<svg width="17" height="18" viewBox="0 0 17 18" fill="none" xmlns="http://www.w3.org/2000/svg">
<path d="M14.7774 17.5633C14.4538 17.5633 14.0706 17.3678 13.7482 17.3061C11.8814 14.8899 12.7152 12.1522 12.7152 9.37858C12.7152 8.79479 12.8421 6.08671 12.1377 6.08671C9.36988 6.08671 10.361 11.499 10.361 13.1308C10.361 14.0798 9.78106 17.4681 8.4333 17.4681C5.92559 17.4681 6.59694 11.4694 6.59694 9.93537C6.59694 9.05197 6.82537 5.95683 5.50172 5.95683C4.2466 5.95683 3.88998 8.14284 3.88998 9.11883C3.88998 10.5886 4.21487 12.0558 4.21487 13.5539C4.21487 14.8282 3.69708 17.5684 2.02443 17.5684C1.08785 17.5684 0.384775 14.4681 0.247714 11.0451C0.120806 7.88181 0.214717 4.48706 0.214717 3.57536C0.214717 1.97572 1.37466 1.55266 2.49907 1.55266C4.97758 1.55266 7.42438 0.932861 9.90417 0.932861C15.8574 0.932861 16.5998 5.27017 16.5998 10.0318C16.5998 10.6863 16.6938 12.448 16.5681 14.0798C16.4184 15.9662 15.8054 17.5633 14.7774 17.5633Z" fill="#03973D"/>
</svg>
