<svg xmlns="http://www.w3.org/2000/svg" xmlns:xlink="http://www.w3.org/1999/xlink"><symbol id="a" viewBox="0 0 13 19">
<path d="M11.3945 17.5992C10.6166 17.9258 8.52642 18.021 7.78528 18.021C4.33972 18.021 2.02111 18.2486 0.932233 13.8779C0.85132 13.4926 0.818487 13.0986 0.834511 12.7051C0.834511 9.34381 2.60488 7.87918 4.27626 6.96362C5.04913 6.50713 5.85373 6.17923 6.46924 5.82176C7.01368 5.49514 7.24084 5.19938 7.24084 4.84448C7.24084 4.09481 5.98445 3.99708 5.43748 3.79648C4.72806 3.5393 4.15189 3.14582 4.15189 2.26499C4.15189 1.15526 5.98445 0.799072 6.81697 0.799072C11.3958 0.799072 12.2626 4.68246 12.2626 8.20194C12.2626 10.1308 12.7778 12.0532 12.7778 13.9769C12.7762 14.7115 12.7001 15.444 12.5507 16.1629C12.0672 16.6207 12.0976 17.2675 11.3945 17.5992ZM4.209 12.5071C4.209 13.5487 4.88669 14.5915 5.79155 14.5915C7.56065 14.5915 8.74978 13.159 8.68505 11.2984C8.62287 9.63442 7.27384 9.43639 6.62533 9.43639C5.63037 9.43639 4.209 11.3652 4.209 12.5071Z"/>
</symbol><symbol id="arrow" viewBox="0 0 101 12">
<path d="M100.53 6.53033C100.823 6.23744 100.823 5.76256 100.53 5.46967L95.7574 0.696699C95.4645 0.403806 94.9896 0.403806 94.6967 0.696699C94.4038 0.989593 94.4038 1.46447 94.6967 1.75736L98.9393 6L94.6967 10.2426C94.4038 10.5355 94.4038 11.0104 94.6967 11.3033C94.9896 11.5962 95.4645 11.5962 95.7574 11.3033L100.53 6.53033ZM0 6.75H100V5.25H0V6.75Z"/>
</symbol><symbol id="corner" viewBox="0 0 45 38">
<path d="M7.40018 0C7.40016 12.8456 18.2878 28.7409 44.9765 38L0.97651 38L7.40018 0Z"/>
</symbol><symbol id="e" viewBox="0 0 15 19">
<path d="M8.00182 10.5166C6.47892 10.5166 4.97125 11.6893 4.97125 13.1899C4.97125 16.2581 9.21887 16.1282 11.7608 15.8016V17.2032C10.507 18.0519 9.24679 18.4762 7.96375 18.4762C2.97499 18.4762 0.656371 13.9409 0.656371 9.57273C0.656371 5.58648 3.26561 0.957276 7.77339 0.957276C11.4436 0.957276 14.4995 4.28644 14.4995 7.97309C14.4995 9.14453 12.733 10.9088 11.639 10.9088C10.4055 10.9126 9.21887 10.5166 8.00182 10.5166ZM5.42051 6.40173C5.42051 6.95595 6.90026 8.19426 7.64267 8.19426C8.54118 8.19426 9.99047 6.92509 9.99047 6.0764C9.99047 5.03226 8.70362 3.92382 7.64267 3.92382C6.29364 3.92897 5.42051 4.97182 5.42051 6.41202V6.40173Z"/>
</symbol><symbol id="elama" viewBox="0 0 78 25">
<path d="M60.7774 24.5633C60.4538 24.5633 60.0706 24.3678 59.7482 24.3061C57.8814 21.8899 58.7152 19.1522 58.7152 16.3786C58.7152 15.7948 58.8421 13.0867 58.1377 13.0867C55.3699 13.0867 56.361 18.499 56.361 20.1308C56.361 21.0798 55.7811 24.4681 54.4333 24.4681C51.9256 24.4681 52.5969 18.4694 52.5969 16.9354C52.5969 16.052 52.8254 12.9568 51.5017 12.9568C50.2466 12.9568 49.89 15.1428 49.89 16.1188C49.89 17.5886 50.2149 19.0558 50.2149 20.5539C50.2149 21.8282 49.6971 24.5684 48.0244 24.5684C47.0878 24.5684 46.3848 21.4681 46.2477 18.0451C46.1208 14.8818 46.2147 11.4871 46.2147 10.5754C46.2147 8.97572 47.3747 8.55266 48.4991 8.55266C50.9776 8.55266 53.4244 7.93286 55.9042 7.93286C61.8574 7.93286 62.5998 12.2702 62.5998 17.0318C62.5998 17.6863 62.6938 19.448 62.5681 21.0798C62.4184 22.9662 61.8054 24.5633 60.7774 24.5633Z"/>
<path d="M22.5853 23.5993C20.5903 23.5993 18.7539 22.9474 18.5242 20.3023C18.2704 17.6289 18.1702 14.854 18.1702 12.1459C18.1702 9.18062 18.3339 4.71087 18.8136 1.61188C19.1689 1.22611 19.7794 0.666748 20.2933 0.666748L20.7134 0.82877C21.65 3.04693 21.9051 6.70014 21.9051 8.75756C21.9051 11.1352 21.6183 13.4871 21.6183 15.83C21.6183 19.5475 23.1627 20.3653 24.7059 20.5877C25.5423 20.7536 26.3811 20.688 27.0271 20.7536C27.9586 20.8526 28.4751 21.2114 28.5081 21.9932C28.635 22.811 27.6058 23.3948 26.126 23.526C24.9407 23.6623 23.4876 23.5993 22.5853 23.5993Z"/>
<path d="M7.34545 16.5593C5.82255 16.5593 4.31488 17.732 4.31488 19.2326C4.31488 22.3008 8.5625 22.1709 11.1044 21.8443V23.2459C9.85063 24.0946 8.59042 24.5189 7.30738 24.5189C2.31862 24.5189 0 19.9836 0 15.6155C0 11.6292 2.60924 7 7.11702 7C10.7872 7 13.8431 10.3292 13.8431 14.0158C13.8431 15.1873 12.0766 16.9515 10.9826 16.9515C9.74913 16.9553 8.5625 16.5593 7.34545 16.5593ZM4.76414 12.4445C4.76414 12.9987 6.24389 14.237 6.9863 14.237C7.88481 14.237 9.3341 12.9678 9.3341 12.1191C9.3341 11.075 8.04725 9.96654 6.9863 9.96654C5.63727 9.97169 4.76414 11.0145 4.76414 12.4547V12.4445Z"/>
<path d="M40.3945 23.5992C39.6166 23.9258 37.5264 24.021 36.7853 24.021C33.3397 24.021 31.0211 24.2486 29.9322 19.8779C29.8513 19.4926 29.8185 19.0986 29.8345 18.7051C29.8345 15.3438 31.6049 13.8792 33.2763 12.9636C34.0491 12.5071 34.8537 12.1792 35.4692 11.8218C36.0137 11.4951 36.2408 11.1994 36.2408 10.8445C36.2408 10.0948 34.9845 9.99708 34.4375 9.79648C33.7281 9.5393 33.1519 9.14582 33.1519 8.26499C33.1519 7.15526 34.9845 6.79907 35.817 6.79907C40.3958 6.79907 41.2626 10.6825 41.2626 14.2019C41.2626 16.1308 41.7778 18.0532 41.7778 19.9769C41.7762 20.7115 41.7001 21.444 41.5507 22.1629C41.0672 22.6207 41.0976 23.2675 40.3945 23.5992ZM33.209 18.5071C33.209 19.5487 33.8867 20.5915 34.7916 20.5915C36.5607 20.5915 37.7498 19.159 37.6851 17.2984C37.6229 15.6344 36.2738 15.4364 35.6253 15.4364C34.6304 15.4364 33.209 17.3652 33.209 18.5071Z"/>
<path d="M40.3945 23.5992C39.6166 23.9258 37.5264 24.021 36.7853 24.021C33.3397 24.021 31.0211 24.2486 29.9322 19.8779C29.8513 19.4926 29.8185 19.0986 29.8345 18.7051C29.8345 15.3438 31.6049 13.8792 33.2763 12.9636C34.0491 12.5071 34.8537 12.1792 35.4692 11.8218C36.0137 11.4951 36.2408 11.1994 36.2408 10.8445C36.2408 10.0948 34.9845 9.99708 34.4375 9.79648C33.7281 9.5393 33.1519 9.14582 33.1519 8.26499C33.1519 7.15526 34.9845 6.79907 35.817 6.79907C40.3958 6.79907 41.2626 10.6825 41.2626 14.2019C41.2626 16.1308 41.7778 18.0532 41.7778 19.9769C41.7762 20.7115 41.7001 21.444 41.5507 22.1629C41.0672 22.6207 41.0976 23.2675 40.3945 23.5992ZM33.209 18.5071C33.209 19.5487 33.8867 20.5915 34.7916 20.5915C36.5607 20.5915 37.7498 19.159 37.6851 17.2984C37.6229 15.6344 36.2738 15.4364 35.6253 15.4364C34.6304 15.4364 33.209 17.3652 33.209 18.5071Z"/>
<path d="M76.3945 22.5992C75.6166 22.9258 73.5264 23.021 72.7853 23.021C69.3397 23.021 67.0211 23.2486 65.9322 18.8779C65.8513 18.4926 65.8185 18.0986 65.8345 17.7051C65.8345 14.3438 67.6049 12.8792 69.2763 11.9636C70.0491 11.5071 70.8537 11.1792 71.4692 10.8218C72.0137 10.4951 72.2408 10.1994 72.2408 9.84448C72.2408 9.09481 70.9845 8.99708 70.4375 8.79648C69.7281 8.5393 69.1519 8.14582 69.1519 7.26499C69.1519 6.15526 70.9845 5.79907 71.817 5.79907C76.3958 5.79907 77.2626 9.68246 77.2626 13.2019C77.2626 15.1308 77.7778 17.0532 77.7778 18.9769C77.7762 19.7115 77.7001 20.444 77.5507 21.1629C77.0672 21.6207 77.0976 22.2675 76.3945 22.5992ZM69.209 17.5071C69.209 18.5487 69.8867 19.5915 70.7916 19.5915C72.5607 19.5915 73.7498 18.159 73.6851 16.2984C73.6229 14.6344 72.2738 14.4364 71.6253 14.4364C70.6304 14.4364 69.209 16.3652 69.209 17.5071Z"/>
</symbol><symbol id="facebook" viewBox="0 0 10 19">
<path d="M9.62343 0.00395327L7.22488 0C4.5302 0 2.78878 1.8353 2.78878 4.67593V6.83184H0.377148C0.168755 6.83184 -6.45949e-08 7.00539 -6.45949e-08 7.21946V10.3431C-6.45949e-08 10.5572 0.168947 10.7306 0.377148 10.7306H2.78878V18.6126C2.78878 18.8267 2.95753 19 3.16593 19H6.31242C6.52081 19 6.68956 18.8265 6.68956 18.6126V10.7306H9.50932C9.71772 10.7306 9.88647 10.5572 9.88647 10.3431L9.88762 7.21946C9.88762 7.11667 9.84779 7.01824 9.77717 6.9455C9.70656 6.87276 9.61034 6.83184 9.51028 6.83184H6.68956V5.00424C6.68956 4.12583 6.89334 3.6799 8.00727 3.6799L9.62304 3.67931C9.83125 3.67931 10 3.50576 10 3.29189V0.391374C10 0.177699 9.83144 0.0043486 9.62343 0.00395327Z"/>
</symbol><symbol id="graph" viewBox="0 0 50 50">
<path d="M5.83318 31.6666C5.37322 31.6666 4.99988 32.04 4.99988 32.4999V44.1666C4.99988 44.6266 5.37322 44.9999 5.83318 44.9999H10.8332C11.2931 44.9999 11.6665 44.6266 11.6665 44.1666V32.4999C11.6665 32.04 11.2931 31.6666 10.8332 31.6666C10.3732 31.6666 9.99988 32.04 9.99988 32.4999V43.3332H6.66658V32.4999C6.66658 32.04 6.29324 31.6666 5.83318 31.6666Z"/>
<path d="M35.8332 38.3334C35.3723 38.3334 34.9999 38.7067 34.9999 39.1667C34.9999 39.6266 35.3723 40 35.8332 40H42.4999C42.9607 40 43.3332 39.6266 43.3332 39.1667C43.3332 38.7067 42.9607 38.3334 42.4999 38.3334H35.8332Z"/>
<path d="M50 29.1667V4.1667C50 1.86914 48.1309 0 45.8333 0H4.1667C1.86914 0 0 1.86914 0 4.1667V25.8334C0 26.2934 0.37334 26.6667 0.833301 26.6667C1.29326 26.6667 1.6666 26.2934 1.6666 25.8334V4.1667C1.6666 2.78838 2.78828 1.6667 4.1666 1.6667H45.8333C47.2116 1.6667 48.3333 2.78838 48.3333 4.1667V28.3334H0.833301C0.37334 28.3334 0 28.7067 0 29.1667V45.8334C0 48.1309 1.86914 50 4.1667 50H45.8334C48.1309 50 50 48.1309 50 45.8333V32.5C50 32.04 49.6275 31.6667 49.1667 31.6667C48.7059 31.6667 48.3334 32.04 48.3334 32.5V45.8333C48.3334 47.2116 47.2117 48.3333 45.8334 48.3333H4.1667C2.78838 48.3333 1.6667 47.2116 1.6667 45.8333V30H49.1667C49.6275 30 50 29.6267 50 29.1667Z"/>
<path d="M14.1668 31.6666C13.7068 31.6666 13.3335 32.04 13.3335 32.4999V37.4999C13.3335 37.9599 13.7068 38.3332 14.1668 38.3332H19.1668C19.6268 38.3332 20.0001 37.9599 20.0001 37.4999V32.4999C20.0001 32.04 19.6268 31.6666 19.1668 31.6666C18.7068 31.6666 18.3335 32.04 18.3335 32.4999V36.6666H15.0001V32.4999C15.0001 32.04 14.6268 31.6666 14.1668 31.6666Z"/>
<path d="M44.1668 26.6667C44.6276 26.6667 45.0001 26.2934 45.0001 25.8334V5.83342C45.0001 5.37346 44.6276 5.00012 44.1668 5.00012H39.1668C38.706 5.00012 38.3335 5.37346 38.3335 5.83342V25.8334C38.3335 26.2934 38.706 26.6667 39.1668 26.6667C39.6276 26.6667 40.0001 26.2934 40.0001 25.8334V6.66672H43.3334V25.8334C43.3334 26.2934 43.706 26.6667 44.1668 26.6667Z"/>
<path d="M35.8332 26.6666C36.2941 26.6666 36.6665 26.2933 36.6665 25.8333V12.4999C36.6665 12.04 36.2941 11.6666 35.8332 11.6666H30.8332C30.3724 11.6666 29.9999 12.04 29.9999 12.4999V25.8332C29.9999 26.2932 30.3724 26.6665 30.8332 26.6665C31.2941 26.6665 31.6665 26.2932 31.6665 25.8332V13.3332H34.9999V25.8332C34.9999 26.2933 35.3724 26.6666 35.8332 26.6666Z"/>
<path d="M10.8331 6.66663C10.3731 6.66663 9.9998 7.03997 9.9998 7.49993V9.99993H7.49981C7.03984 9.99993 6.6665 10.3733 6.6665 10.8332C6.6665 11.2932 7.03984 11.6665 7.49981 11.6665H9.9998V14.1665C9.9998 14.6265 10.3731 14.9998 10.8331 14.9998C11.2931 14.9998 11.6664 14.6265 11.6664 14.1665V11.6665H14.1664C14.6264 11.6665 14.9997 11.2932 14.9997 10.8332C14.9997 10.3733 14.6264 9.99993 14.1664 9.99993H11.6664V7.49993C11.6665 7.03997 11.2932 6.66663 10.8331 6.66663Z"/>
<path d="M27.5 26.6668C27.9609 26.6668 28.3333 26.2935 28.3333 25.8335V19.1668C28.3333 18.7068 27.9609 18.3335 27.5 18.3335H22.5C22.0401 18.3335 21.6667 18.7068 21.6667 19.1668V25.8335C21.6667 26.2935 22.0401 26.6668 22.5 26.6668C22.96 26.6668 23.3333 26.2935 23.3333 25.8335V20.0001H26.6667V25.8334C26.6667 26.2935 27.0392 26.6668 27.5 26.6668Z"/>
</symbol><symbol id="l" viewBox="0 0 11 24">
<path d="M4.5853 23.5993C2.59031 23.5993 0.753944 22.9474 0.52424 20.3023C0.270424 17.6289 0.170169 14.854 0.170169 12.1459C0.170169 9.18062 0.333881 4.71087 0.813595 1.61188C1.16894 1.22611 1.77936 0.666748 2.29334 0.666748L2.71341 0.82877C3.64999 3.04693 3.90508 6.70014 3.90508 8.75756C3.90508 11.1352 3.61826 13.4871 3.61826 15.83C3.61826 19.5475 5.16274 20.3653 6.70594 20.5877C7.54227 20.7536 8.38113 20.688 9.02709 20.7536C9.9586 20.8526 10.4751 21.2114 10.5081 21.9932C10.635 22.811 9.6058 23.3948 8.12605 23.526C6.94072 23.6623 5.48762 23.5993 4.5853 23.5993Z"/>
</symbol><symbol id="lama" viewBox="0 0 41 40">
<path d="M34.1608 5.82914C30.4013 2.09005 25.3112 -0.00626218 20.0071 1.40523e-05C14.703 0.00629029 9.61787 2.11465 5.8672 5.86262C2.11653 9.6106 0.00652842 14.6922 1.51225e-05 19.9927C-0.00649817 25.2933 2.09101 30.38 5.83246 34.1372C8.06069 36.3708 10.7884 38.0429 13.7906 39.0157C13.8714 38.4416 13.9224 37.8253 13.9572 37.2027C13.9659 37.148 13.9336 37.0499 13.9709 37.0275V36.8188C13.9821 36.743 13.951 36.6174 13.9908 36.5702V36.2347C14.0007 35.9862 13.9659 35.6979 14.0094 35.4817V35.4643C13.9659 35.2419 14.0007 34.9449 13.9908 34.6939V34.3857C13.951 34.3335 13.9821 34.203 13.9709 34.1235V33.9309C13.9336 33.9073 13.9709 33.8067 13.9572 33.7545V33.6501C14.7157 33.839 15.519 33.9769 16.2526 34.1919C15.8597 34.2888 15.7677 34.6752 15.7241 35.1189C15.7154 35.1773 15.7503 35.2705 15.7092 35.2941C15.7366 36.9691 16.1084 38.3049 16.4366 39.678C21.0673 40.5188 25.8463 39.7008 29.9331 37.368C29.9454 37.3562 29.957 37.3438 29.9679 37.3307C29.9887 37.2146 29.9999 37.097 30.0015 36.979C30.0432 36.6189 30.0669 36.2568 30.0724 35.8942V35.56C30.0375 34.5174 29.8137 33.4103 28.8625 33.3059C28.2047 33.2276 27.7434 33.5407 27.246 33.7234C28.3178 32.5019 29.1435 31.0294 29.2455 28.8387V28.2049C29.0565 25.5346 27.9709 23.7576 26.8108 22.0602C26.7013 21.944 26.6011 21.8193 26.5111 21.6874C26.4077 21.5677 26.3149 21.4393 26.2338 21.3034V21.2674H26.3582C26.955 21.0773 27.2211 20.5566 27.4288 19.9726C27.5225 19.5925 27.5865 19.2057 27.6203 18.8157C27.6315 18.735 27.5954 18.6082 27.6402 18.5535V18.5175C27.5954 18.4715 27.6315 18.3485 27.6203 18.269C27.6016 18.1174 27.5743 17.977 27.5494 17.8328C27.5178 17.7714 27.494 17.7063 27.4785 17.639V17.6216C27.3725 17.4094 27.2437 17.2094 27.0943 17.0251C26.9239 16.8188 26.6951 16.6225 26.6379 16.3802C26.5136 15.3016 26.812 14.3585 27.1117 13.5943C27.1512 13.4775 27.2051 13.366 27.2721 13.2625C27.2721 13.1805 27.3181 13.1482 27.3392 13.086C27.3652 12.9997 27.4002 12.9164 27.4437 12.8375C27.492 12.6601 27.5273 12.4795 27.5494 12.297V11.9031C27.4561 10.8406 27.2211 9.91487 27.0234 8.96054C26.9948 8.91332 26.9973 8.83628 26.9712 8.78533V8.76669C26.2649 6.44424 25.157 4.52191 23.1003 3.5477C23.0879 3.5477 23.0779 3.5477 23.0817 3.52782C22.8665 3.46569 22.6825 3.36752 22.45 3.31782C22.4388 3.31782 22.4288 3.31782 22.4338 3.3029C22.3095 3.3029 22.2548 3.36752 22.1516 3.38989C22.1366 3.42717 22.0732 3.41598 22.0434 3.44083H21.9949C21.9427 3.65581 21.8705 3.87824 21.9427 4.10688C22.0203 4.3026 22.1267 4.48563 22.2585 4.6499C23.0769 5.83108 23.8036 7.07319 24.432 8.36532C24.4848 8.46148 24.5309 8.56112 24.5701 8.66355C24.631 8.72692 24.6459 8.83628 24.6944 8.91208C24.718 8.98166 24.7628 9.03634 24.7802 9.10592C24.825 9.15314 24.8337 9.23018 24.8697 9.28237C25.4032 10.4566 25.9889 11.5825 26.0771 13.2041C26.1082 13.3658 26.1082 13.5319 26.0771 13.6937C26.0804 13.9018 26.0502 14.109 25.9876 14.3075C25.9814 14.3766 25.9583 14.4432 25.9205 14.5014C25.9205 14.5685 25.8819 14.5933 25.867 14.6418C25.8018 14.7968 25.7058 14.9369 25.5848 15.0537C25.4639 15.1706 25.3204 15.2617 25.1632 15.3215C25.1042 15.3535 25.0387 15.3717 24.9717 15.3749C24.7728 15.4072 24.4917 15.1749 24.3052 15.0966C24.2381 15.0966 24.2182 15.0581 24.1672 15.0444C24.0802 15.0192 23.9966 14.9833 23.9185 14.9375C23.6698 14.863 23.4398 14.7822 23.1998 14.7101C23.0909 14.6952 22.9843 14.6664 22.8827 14.6244C22.4094 14.5256 21.9307 14.455 21.449 14.4131C21.3893 14.4007 21.2836 14.4343 21.255 14.3957H20.3461C20.3187 14.4343 20.2217 14.3957 20.1695 14.4131C19.3962 14.4627 18.628 14.5719 17.8716 14.7399C17.7884 14.7733 17.7016 14.7967 17.6129 14.8095C17.4637 14.8493 17.3294 14.904 17.1728 14.9338C17.0593 14.9854 16.9416 15.027 16.8209 15.0581C16.7557 15.0928 16.685 15.1159 16.612 15.1264C16.3919 15.2382 16.1531 15.3227 15.9268 15.4271C15.9069 15.4271 15.9044 15.4495 15.8758 15.4445C14.1686 16.2969 12.8779 17.557 12.092 19.3327C12.0594 19.4468 12.0178 19.5581 11.9677 19.6657C11.9469 19.7512 11.9178 19.8344 11.8806 19.9142C11.8533 20.0633 11.8085 20.1901 11.7749 20.333V20.3864C11.2884 20.6624 10.8274 20.9809 10.3972 21.3382C10.2393 21.4737 10.0838 21.6203 9.92342 21.757C9.79908 21.8999 9.66105 22.0304 9.52054 22.1608C9.22957 22.5063 8.79436 22.9536 8.54567 23.442C8.44993 23.6259 8.2659 24.072 8.59541 24.0894H8.79064C9.06252 24.0364 9.33744 24.0003 9.6138 23.9813H9.91347C9.97316 23.9962 10.0739 23.9614 10.1037 24.0024C10.7873 24.0431 11.4611 24.1846 12.1032 24.4224C12.4327 24.5467 12.7461 24.7182 13.2049 24.6834C12.8741 24.7828 12.5372 24.7517 12.2263 24.789C11.2701 24.9132 10.6322 25.4103 10.0515 25.875C9.9336 26.0056 9.80909 26.13 9.67846 26.2478C9.55412 26.4429 9.37506 26.4963 9.39868 26.7722C9.42231 27.0481 9.73815 27.2096 9.99306 27.3314C10.6583 27.6545 11.4777 27.8284 12.2524 27.9614C12.4258 27.9999 12.6022 28.0236 12.7796 28.0322C12.909 28.0111 13.0369 27.982 13.1626 27.9452C13.5667 27.8682 14.1574 27.8284 14.3029 28.1527C14.4484 28.4771 14.2059 28.8983 14.0915 29.0984C13.9771 29.2984 13.9435 29.3556 14.0069 29.5731C14.1126 29.9533 14.3539 30.2341 14.5814 30.5373C14.6958 30.632 14.8019 30.7364 14.8985 30.8492C15.8771 31.6892 17.072 32.3056 18.3503 32.83C19.5021 33.3051 20.678 33.7198 21.873 34.0726C22.0531 34.1065 22.2294 34.1585 22.399 34.2279C22.0683 34.3206 21.7265 34.3678 21.3831 34.3683C21.3483 34.4106 21.2364 34.3758 21.1717 34.3882H20.7502C20.6743 34.3758 20.5537 34.4106 20.5015 34.3683C19.1932 34.2927 17.8957 34.087 16.6281 33.7545C15.616 33.4997 14.5665 33.1878 13.5991 32.8598C13.4627 32.7991 13.3228 32.7469 13.18 32.7032C13.0301 32.7211 12.8828 32.7565 12.7411 32.8088C12.2784 32.9407 11.8018 33.0178 11.3211 33.0387C11.171 33.0661 11.0173 33.0661 10.8672 33.0387C9.38252 32.9542 8.55065 32.2211 8.32683 30.8865C8.11879 30.9681 7.90028 31.02 7.67774 31.0406C6.44797 31.0642 6.34352 29.3593 6.78246 28.4497C6.9068 28.1776 7.13187 28.0148 7.30844 27.821C7.66033 27.4271 7.79711 26.7548 7.46636 26.1037C7.36564 25.9049 7.14554 25.7831 7.01125 25.5097C6.79986 25.0785 6.91924 24.6312 7.09829 24.2671C7.27957 23.9301 7.47967 23.6036 7.69764 23.2891C8.10176 22.6293 8.73965 22.09 9.14875 21.588C9.20026 21.5226 9.25956 21.4638 9.32532 21.4128C9.35019 21.3618 9.40366 21.342 9.42853 21.2885C9.48059 21.2241 9.53936 21.1653 9.60385 21.1133C9.64613 21.0437 9.72074 21.0077 9.76302 20.9406C9.81649 20.7517 10.1995 20.6113 10.2355 20.3976C10.2355 20.3628 10.2355 20.3292 10.2355 20.292V20.0956C10.248 20.0422 10.2131 19.9453 10.2542 19.9229C10.2633 19.7172 10.3105 19.5149 10.3934 19.3264C10.9306 17.9807 11.9876 17.1481 13.0731 16.3442C12.3229 15.4626 11.6928 14.4857 11.1992 13.4389V13.4215C11.1411 13.3344 11.0939 13.2405 11.0587 13.1419C10.8568 12.7167 10.6865 12.2773 10.5489 11.8273C10.5133 11.762 10.4897 11.6909 10.4792 11.6173C10.2066 10.755 10.0539 9.85938 10.0254 8.95557V8.35041C10.0254 8.29449 10.013 8.22615 10.0415 8.19136C10.0527 8.12053 10.0192 8.00496 10.0602 7.96272V7.94532C10.1196 7.1193 10.3146 6.30866 10.6372 5.54583C10.7139 5.30955 10.8138 5.08145 10.9356 4.86487C10.9431 4.85617 10.9468 4.83505 10.9555 4.8276C11.3621 4.41877 12.0895 3.98262 12.7249 4.41008C13.2459 4.76298 13.4984 5.43648 13.706 6.17832C13.8961 6.92855 14.048 7.68794 14.1611 8.45355C14.3082 9.18973 14.5247 9.91034 14.8077 10.6058C14.8484 10.6576 14.878 10.7172 14.8948 10.781V10.7996C15.0054 10.9798 15.0925 11.1861 15.1932 11.3749V11.3899C15.2493 11.4613 15.2965 11.5393 15.3337 11.6222V11.6458C15.7137 12.2628 16.1797 12.8227 16.7177 13.3085C16.8731 13.4389 17.1118 13.6899 17.2971 13.7272C17.516 13.7757 17.7385 13.6912 17.9449 13.7272H18.4697C18.5629 13.6862 18.7333 13.7198 18.8564 13.7111H19.1536C19.2294 13.6701 19.3811 13.7111 19.4868 13.6912H19.697C19.7504 13.6502 19.8785 13.6912 19.9593 13.6738H20.1185C20.1571 13.6353 20.2752 13.6738 20.3473 13.6601H20.4853C20.5214 13.6179 20.6321 13.6502 20.6967 13.6415C21.8892 13.5557 23.1103 13.4961 24.0789 13.1842C24.1745 13.1324 24.2628 13.0681 24.3413 12.9928V12.6772C24.3027 12.635 24.3413 12.5206 24.3239 12.4486C24.2271 11.1692 23.9556 9.90908 23.5169 8.70331C23.4783 8.64243 23.4609 8.55917 23.4273 8.49207V8.47592C23.3776 8.36905 23.3403 8.24976 23.2893 8.14165V8.12426C22.9967 7.44786 22.6572 6.79265 22.2734 6.16341C21.9004 5.57068 21.403 5.00529 21.3446 4.13297V4.11433C21.3159 3.99381 21.3159 3.86828 21.3446 3.74776V3.72664C21.3465 3.62635 21.3641 3.52699 21.3968 3.43214C21.4204 3.38864 21.4266 3.32279 21.4664 3.29172C21.5151 3.18311 21.5851 3.08535 21.6722 3.00425C21.7593 2.92314 21.8619 2.86033 21.9737 2.81953C22.1503 2.71142 22.4177 2.69527 22.6763 2.66171H22.925C23.4725 2.67815 24.0075 2.82878 24.483 3.10036C25.4019 3.58622 26.1107 4.30445 26.7436 5.0786C27.3955 5.87342 27.9595 6.73624 28.426 7.65206V7.66449C28.5888 7.96183 28.7349 8.26798 28.8637 8.58154V8.59645C28.8924 8.64722 28.9166 8.70045 28.9358 8.7555C29.3847 9.73966 29.5116 11.0481 29.5663 12.4312C29.6073 12.4722 29.5663 12.5877 29.5837 12.6586V12.8189C29.626 12.8686 29.5911 12.999 29.6023 13.0798V13.3606C29.6229 13.4992 29.6275 13.6398 29.616 13.7794V14.935C29.6274 15.1219 29.6228 15.3094 29.6023 15.4955V15.7079C29.5911 15.7962 29.626 15.9279 29.5837 15.985V16.1093C29.5725 16.1727 29.6073 16.2833 29.5663 16.3181V16.4237C29.5538 16.4759 29.5911 16.574 29.5464 16.6001C29.5315 17.2437 29.4439 17.8836 29.2853 18.5076C29.2765 18.5938 29.2529 18.6778 29.2156 18.7561C29.193 18.8814 29.158 19.0042 29.1112 19.1227C29.0816 19.2621 29.0348 19.3973 28.9719 19.5253C28.9725 19.5491 28.9669 19.5726 28.9557 19.5936C28.9309 19.6545 28.9259 19.7303 28.8824 19.7688C28.7928 20.0708 28.6772 20.3429 28.5665 20.6275C28.5451 20.7124 28.5168 20.7955 28.482 20.876C28.4711 20.9604 28.4523 21.0436 28.426 21.1245V21.3345C28.4322 21.3594 28.4509 21.3681 28.4447 21.4066C28.5218 21.5308 28.5839 21.6551 28.6548 21.7893C29.8635 23.529 30.9515 25.409 31.7398 27.5861C32.5282 29.7632 33.0256 32.1962 33.2817 34.9238L31.6652 36.267C32.5536 35.626 33.3882 34.9137 34.1608 34.1372C36.0215 32.2787 37.4976 30.0721 38.5047 27.6434C39.5117 25.2147 40.0301 22.6115 40.0301 19.9825C40.0301 17.3536 39.5117 14.7504 38.5047 12.3217C37.4976 9.89298 36.0215 7.68636 34.1608 5.8279V5.82914ZM22.1714 20.5703C21.7984 20.502 21.4378 20.3802 21.1381 20.3417C20.7651 20.2932 20.5164 20.5069 20.1745 20.5902C20.264 20.373 20.3878 20.1716 20.5413 19.9937C20.7355 19.7573 20.9736 19.5607 21.2426 19.4147C21.3247 19.3824 21.3781 19.3202 21.4851 19.3128C21.5488 19.2704 21.6226 19.2456 21.6989 19.2407C21.8409 19.197 21.9897 19.1797 22.1379 19.1898C22.154 19.1599 22.2946 19.1599 22.3132 19.1898C23.0381 19.2395 23.589 19.4656 24.345 19.488H24.677C24.8362 19.4768 24.9618 19.4482 25.1172 19.4345C25.182 19.3978 25.2534 19.3741 25.3273 19.365C25.3239 19.4319 25.3057 19.4973 25.2739 19.5563C25.2695 19.6181 25.2521 19.6782 25.2229 19.7328C25.1973 19.8166 25.155 19.8943 25.0985 19.9614C25.0646 20.0379 25.018 20.1081 24.9605 20.1689C24.9104 20.2351 24.8514 20.2941 24.7852 20.3441C24.4545 20.604 24.0469 20.7469 23.6263 20.7505H23.3428C22.9489 20.7156 22.5576 20.6555 22.1714 20.5703Z"/>
</symbol><symbol id="long-arrow" viewBox="0 0 227 55">
<path d="M223.861 53.8321C224.274 53.8114 224.593 53.4593 224.572 53.0456L224.236 46.304C224.215 45.8903 223.863 45.5717 223.449 45.5923C223.036 45.613 222.717 45.9651 222.738 46.3788L223.037 52.3713L217.044 52.6705C216.631 52.6911 216.312 53.0432 216.333 53.4569C216.353 53.8706 216.705 54.1892 217.119 54.1686L223.861 53.8321ZM0.600764 43.4277C1.07043 44.0124 1.07056 44.0123 1.07113 44.0119C1.07189 44.0112 1.07289 44.0105 1.0744 44.0092C1.07744 44.0068 1.08219 44.003 1.08864 43.9979C1.10154 43.9876 1.12125 43.9719 1.14772 43.951C1.20066 43.9092 1.28062 43.8464 1.38717 43.7636C1.60027 43.5982 1.91971 43.353 2.342 43.0367C3.1866 42.404 4.4425 41.4869 6.08173 40.3539C9.36037 38.0877 14.1715 34.9582 20.2915 31.5134C32.5335 24.6225 50.0007 16.4762 70.9057 11.4471C112.687 1.39586 168.226 3.78366 223.32 53.6391L224.327 52.5269C168.803 2.28255 112.73 -0.157309 70.5548 9.98873C49.4814 15.0583 31.8838 23.2669 19.5557 30.2062C13.3906 33.6765 8.54036 36.831 5.22884 39.1199C3.57299 40.2645 2.30163 41.1928 1.44274 41.8361C1.01328 42.1578 0.686921 42.4083 0.467155 42.5789C0.357271 42.6643 0.274034 42.7296 0.21788 42.774C0.189802 42.7962 0.168496 42.8131 0.154015 42.8246C0.146774 42.8304 0.141239 42.8348 0.137418 42.8379C0.135508 42.8394 0.133928 42.8407 0.132972 42.8414C0.131822 42.8424 0.1311 42.843 0.600764 43.4277Z"/>
</symbol><symbol id="m" viewBox="0 0 17 18">
<path d="M14.7774 17.5633C14.4538 17.5633 14.0706 17.3678 13.7482 17.3061C11.8814 14.8899 12.7152 12.1522 12.7152 9.37858C12.7152 8.79479 12.8421 6.08671 12.1377 6.08671C9.36988 6.08671 10.361 11.499 10.361 13.1308C10.361 14.0798 9.78106 17.4681 8.4333 17.4681C5.92559 17.4681 6.59694 11.4694 6.59694 9.93537C6.59694 9.05197 6.82537 5.95683 5.50172 5.95683C4.2466 5.95683 3.88998 8.14284 3.88998 9.11883C3.88998 10.5886 4.21487 12.0558 4.21487 13.5539C4.21487 14.8282 3.69708 17.5684 2.02443 17.5684C1.08785 17.5684 0.384775 14.4681 0.247714 11.0451C0.120806 7.88181 0.214717 4.48706 0.214717 3.57536C0.214717 1.97572 1.37466 1.55266 2.49907 1.55266C4.97758 1.55266 7.42438 0.932861 9.90417 0.932861C15.8574 0.932861 16.5998 5.27017 16.5998 10.0318C16.5998 10.6863 16.6938 12.448 16.5681 14.0798C16.4184 15.9662 15.8054 17.5633 14.7774 17.5633Z"/>
</symbol><symbol id="monitor" viewBox="0 0 50 50">
<path d="M32.4998 45H29.9998V40.8333C29.9998 40.3733 29.6265 40 29.1665 40C28.7066 40 28.3332 40.3733 28.3332 40.8333V45.8333C28.3332 46.2933 28.7066 46.6666 29.1665 46.6666H32.4998C33.4357 46.6666 34.4123 47.4282 34.8123 48.3333H15.1873C15.5873 47.4283 16.564 46.6666 17.4998 46.6666H25.8331C26.2931 46.6666 26.6664 46.2933 26.6664 45.8333C26.6664 45.3733 26.2931 45 25.8331 45H21.6664V40.8333C21.6664 40.3733 21.2931 40 20.8331 40C20.3732 40 19.9998 40.3733 19.9998 40.8333V45H17.4998C15.3581 45 13.3331 47.025 13.3331 49.1667C13.3331 49.6267 13.7065 50 14.1664 50H35.8331C36.2931 50 36.6664 49.6267 36.6664 49.1667C36.6665 47.025 34.6415 45 32.4998 45Z"/>
<path d="M37.5557 26.5925C37.6674 26.6433 37.7841 26.6666 37.8991 26.6666C38.2158 26.6666 38.5191 26.4849 38.6591 26.1774C39.5482 24.2124 39.9999 22.1341 39.9999 19.9999C39.9999 11.7291 33.2707 4.99988 24.9999 4.99988C16.7291 4.99988 9.99988 11.7291 9.99988 19.9999C9.99988 22.1341 10.4515 24.2124 11.3407 26.1774C11.5315 26.5966 12.0257 26.7824 12.444 26.5925C12.8632 26.4024 13.049 25.9083 12.8598 25.4891C12.0674 23.7417 11.6665 21.895 11.6665 20C11.6665 12.6483 17.6481 6.66667 24.9998 6.66667C32.3514 6.66667 38.3332 12.6483 38.3332 20C38.3332 21.895 37.9324 23.7417 37.1398 25.4891C36.9508 25.9083 37.1365 26.4025 37.5557 26.5925Z"/>
<path d="M45.8333 0H4.1667C2.025 0 0 2.025 0 4.1667V25.8334C0 26.2934 0.37334 26.6667 0.833301 26.6667C1.29326 26.6667 1.6666 26.2934 1.6666 25.8334V4.1667C1.6666 2.95166 2.95156 1.6667 4.1666 1.6667H45.8333C47.0483 1.6667 48.3333 2.95166 48.3333 4.1667V34.1667C48.3333 35.3817 47.0483 36.6667 45.8333 36.6667H4.1667C2.95166 36.6667 1.6667 35.3817 1.6667 34.1667V30H45.8334C46.2934 30 46.6667 29.6267 46.6667 29.1667C46.6667 28.7067 46.2934 28.3334 45.8334 28.3334H0.833301C0.37334 28.3334 0 28.7067 0 29.1667V34.1667C0 36.3084 2.025 38.3334 4.1667 38.3334H45.8334C47.9751 38.3334 50.0001 36.3084 50.0001 34.1667V4.1667C50 2.025 47.975 0 45.8333 0Z"/>
<path d="M33.6698 26.5349C33.809 26.6241 33.9649 26.6666 34.1182 26.6666C34.3932 26.6666 34.6615 26.5307 34.8207 26.2833C36.0282 24.3991 36.6665 22.2266 36.6665 20C36.6665 13.5667 31.4332 8.33325 24.9998 8.33325C18.5664 8.33325 13.3331 13.5667 13.3331 20C13.3331 22.2266 13.9715 24.3991 15.1789 26.2833C15.4264 26.6699 15.9414 26.7841 16.3298 26.5349C16.7173 26.2866 16.8306 25.7708 16.5815 25.3832C15.5473 23.7682 14.9998 21.9074 14.9998 20C14.9998 14.4858 19.4857 9.99995 24.9998 9.99995C30.514 9.99995 34.9998 14.4858 34.9998 20C34.9998 21.9075 34.4524 23.7683 33.4182 25.3832C33.169 25.7708 33.2823 26.2866 33.6698 26.5349Z"/>
<path d="M23.3334 33.3332C23.3334 34.2523 24.0808 34.9999 25.0001 34.9999C25.9192 34.9999 26.6668 34.2524 26.6668 33.3332C26.6668 32.4141 25.9193 31.6665 25.0001 31.6665C24.0809 31.6666 23.3334 32.4141 23.3334 33.3332Z"/>
<path d="M25 15.8334C25.9192 15.8334 26.6667 16.5808 26.6667 17.5001C26.6667 17.96 27.0401 18.3334 27.5 18.3334C27.96 18.3334 28.3333 17.96 28.3333 17.5001C28.3333 15.9517 27.2666 14.6576 25.8333 14.285V14.1667C25.8333 13.7067 25.46 13.3334 25 13.3334C24.5401 13.3334 24.1667 13.7067 24.1667 14.1667V14.285C22.7334 14.6575 21.6667 15.9517 21.6667 17.5001C21.6667 19.3385 23.1618 20.8334 25 20.8334C25.9192 20.8334 26.6667 21.5808 26.6667 22.5001C26.6667 23.4192 25.9193 24.1668 25 24.1668C24.0809 24.1668 23.3333 23.4193 23.3333 22.5001C23.3333 22.0401 22.96 21.6668 22.5 21.6668C22.0401 21.6668 21.6667 22.0401 21.6667 22.5001C21.6667 24.0484 22.7334 25.3426 24.1667 25.7151V25.8335C24.1667 26.2934 24.5401 26.6668 25 26.6668C25.46 26.6668 25.8333 26.2934 25.8333 25.8335V25.7151C27.2666 25.3427 28.3333 24.0484 28.3333 22.5001C28.3333 20.6617 26.8383 19.1668 25 19.1668C24.0809 19.1668 23.3333 18.4193 23.3333 17.5001C23.3333 16.5808 24.0809 15.8334 25 15.8334Z"/>
</symbol><symbol id="rss" viewBox="0 0 16 16">
<path d="M2.375 16C3.66724 16 4.71875 14.9172 4.71875 13.625C4.71875 12.3328 3.66724 11.25 2.375 11.25C1.08276 11.25 0 12.3328 0 13.625C0 14.9172 1.08276 16 2.375 16Z"/>
<path d="M7.5625 15.5312C7.5625 15.6895 7.54907 15.8444 7.5387 16H10.3512C10.3586 15.8435 10.375 15.6895 10.375 15.5312C10.375 10.1035 5.89648 5.625 0.46875 5.625C0.310547 5.625 0.156494 5.64136 0 5.6488V8.4613C0.15564 8.45093 0.310547 8.4375 0.46875 8.4375C4.34595 8.4375 7.5625 11.6541 7.5625 15.5312Z"/>
<path d="M0.46875 0C0.310425 0 0.157105 0.019043 0 0.0236816V2.8363C0.15686 2.83044 0.310547 2.8125 0.46875 2.8125C7.44739 2.8125 13.1875 8.55261 13.1875 15.5312C13.1875 15.6895 13.1696 15.8431 13.1637 16H15.9763C15.981 15.8429 16 15.6896 16 15.5312C16 6.98804 9.01184 0 0.46875 0Z"/>
</symbol><symbol id="slack" viewBox="0 0 18 18">
<path d="M0.0787506 9.65273C0.352123 8.81008 1.25662 8.34995 2.09924 8.62333L3.71473 9.14871C4.07248 8.04619 4.45386 6.87391 4.8116 5.77364C3.82948 5.45413 3.19611 5.24825 3.19611 5.24825C2.35349 4.97487 1.89337 4.07035 2.16674 3.2277C2.44011 2.38506 3.34461 1.92492 4.18723 2.1983L5.80272 2.72369C6.12222 1.74154 6.3281 1.10815 6.3281 1.10815C6.60035 0.266631 7.50484 -0.19463 8.34746 0.0787517C9.19008 0.352133 9.65021 1.25665 9.37683 2.0993L8.85146 3.71484L12.2264 4.81174C12.5448 3.82959 12.7507 3.1962 12.7507 3.1962C13.0252 2.35355 13.9297 1.89229 14.7712 2.1668C15.6138 2.44018 16.0751 3.3447 15.8006 4.18622L15.2752 5.80289L16.9424 6.34515C17.7299 6.62978 18.172 7.47918 17.9369 8.29594C17.6917 9.14646 16.7883 9.6651 15.9524 9.39397C15.9457 9.39172 15.2898 9.17909 14.2852 8.85171L13.1883 12.2268L14.8556 12.769C15.6419 13.0537 16.0841 13.9031 15.8501 14.7198C15.6048 15.5704 14.7014 16.0901 13.8656 15.8179C13.8588 15.8156 13.2029 15.603 12.1972 15.2756L11.6549 16.9429C11.3703 17.7293 10.521 18.1714 9.70421 17.9374C8.85371 17.6922 8.33396 16.7888 8.60621 15.9529C8.60846 15.9461 8.82109 15.2914 9.14734 14.2856C8.04484 13.9278 6.87259 13.5464 5.77235 13.1887L5.2301 14.856C4.94548 15.6424 4.09611 16.0845 3.27936 15.8505C2.42886 15.6052 1.90912 14.7018 2.18137 13.8659C2.18361 13.8592 2.39624 13.2044 2.72361 12.1987C1.74149 11.8792 1.10812 11.6733 1.10812 11.6733C0.266624 11.3999 -0.194624 10.4954 0.0787506 9.65273ZM10.1385 11.2368C10.4973 10.1342 10.8776 8.96196 11.2353 7.86168C10.1328 7.50393 8.96059 7.12254 7.86034 6.76478L6.76347 10.1399L10.1385 11.2368Z"/>
</symbol><symbol id="student" viewBox="0 0 50 50">
<path d="M30 24.9994C31.6833 24.9994 33.0658 23.7403 33.2875 22.1161L36.3333 19.8329C36.7016 19.557 36.7766 19.0345 36.5 18.6662C36.2241 18.2978 35.7016 18.222 35.3333 18.4995L33.2092 20.0928C32.8917 19.077 31.9533 18.3329 30.8334 18.3329H27.5001C26.1218 18.3329 25.0001 19.4545 25.0001 20.8329C25.0001 19.4545 23.8785 18.3329 22.5001 18.3329H19.1667C18.0466 18.3329 17.1084 19.077 16.7908 20.0928L14.6667 18.4995C14.2992 18.2236 13.7759 18.2986 13.5 18.6662C13.2233 19.0345 13.2983 19.557 13.6667 19.8329L16.7125 22.1161C16.9341 23.7403 18.3158 24.9994 20 24.9994H21.6666C23.505 24.9994 24.9999 23.5044 24.9999 21.6661C24.9999 23.5045 26.4949 24.9994 28.3332 24.9994H30ZM23.3333 21.6661C23.3333 22.5853 22.585 23.3328 21.6666 23.3328H20C19.0816 23.3328 18.3333 22.5854 18.3333 21.6661V20.8329C18.3333 20.3737 18.7066 19.9996 19.1666 19.9996H22.4998C22.9598 19.9996 23.3331 20.3737 23.3331 20.8329V21.6661H23.3333ZM26.6666 21.6661V20.8329C26.6666 20.3737 27.04 19.9996 27.4999 19.9996H30.8332C31.2932 19.9996 31.6665 20.3737 31.6665 20.8329V21.6661C31.6665 22.5853 30.9182 23.3328 29.9998 23.3328H28.3331C27.415 23.3327 26.6666 22.5853 26.6666 21.6661Z"/>
<path d="M49.9751 48.9635L49.1235 45.5694C48.6959 44.2844 46.166 40.151 31.6669 40.0385V39.1661C31.6669 38.7061 31.2945 38.3328 30.8336 38.3328C30.3728 38.3328 30.0003 38.7061 30.0003 39.1661V40.8328C30.0003 40.8386 30.0036 40.8436 30.0036 40.8495C30.0036 40.8544 30.0003 40.8586 30.0003 40.8645C29.997 41.3728 29.8295 45.8328 25.0003 45.8328C20.1712 45.8328 20.0037 41.342 20.0004 40.8328V39.1662C20.0004 38.7062 19.6279 38.3329 19.1671 38.3329C18.7062 38.3329 18.3338 38.7062 18.3338 39.1662V40.0079C7.53528 40.0927 2.12779 41.816 0.858655 45.6302L0.0253578 48.9635C-0.0871417 49.4102 0.185318 49.8626 0.631996 49.9743C1.07701 50.0877 1.53033 49.8143 1.64195 49.3685L2.45699 46.096C3.42534 43.1918 8.64026 41.741 18.3886 41.6685C18.6911 44.0543 20.3127 47.4993 25.0001 47.4993C29.6851 47.4993 31.3076 44.0752 31.6117 41.7019C43.0334 41.7861 47.0041 44.4819 47.525 46.0352L48.3583 49.3685C48.4534 49.7468 48.7925 49.9993 49.1659 49.9993C49.2326 49.9993 49.3008 49.9918 49.3684 49.9743C49.8151 49.8626 50.0867 49.4102 49.9751 48.9635Z"/>
<path d="M5.72602 4.15953L24.8926 6.65951C24.9285 6.66371 24.9643 6.66616 25.0002 6.66616C25.036 6.66616 25.0718 6.66362 25.1077 6.65951L43.3334 4.28208V7.17543C42.8109 7.76293 41.6667 9.22874 41.6667 10.8329C41.6667 12.6671 43.1617 13.3329 44.1667 13.3329C45.1716 13.3329 46.6666 12.6671 46.6666 10.8329C46.6666 9.22874 45.5225 7.76293 45 7.17543V3.33287C45 3.22291 44.9766 3.11871 44.9375 3.02203C44.9233 2.98785 44.8991 2.96119 44.8808 2.92955C44.8483 2.87125 44.8158 2.81373 44.7709 2.76539C44.7417 2.73453 44.7067 2.71373 44.6734 2.68873C44.6259 2.65035 44.5793 2.61373 44.5243 2.58707C44.4835 2.56705 44.4401 2.55875 44.396 2.54625C44.3551 2.53375 44.3184 2.51207 44.2743 2.50621L25.1077 0.00622556C25.036 -0.00207519 24.9643 -0.00207519 24.8926 0.00622556L5.72602 2.50621C5.31099 2.56041 5.00024 2.91451 5.00024 3.33287C5.00024 3.75123 5.31108 4.10543 5.72602 4.15953ZM45.0001 10.8328C45.0001 11.4979 44.5492 11.6536 44.1668 11.6661C43.7842 11.6536 43.3335 11.4978 43.3335 10.8328C43.3335 10.1411 43.7585 9.36946 44.1668 8.80032C44.5751 9.36956 45.0001 10.1412 45.0001 10.8328ZM25.0002 1.67292L37.7242 3.33287L25.0002 4.99292L12.276 3.33287L25.0002 1.67292Z"/>
<path d="M26.921 30.2344C26.8943 30.2586 26.266 30.8328 25.0002 30.8328C23.7527 30.8328 23.1243 30.2753 23.081 30.2353C22.7569 29.9178 22.2344 29.9203 21.911 30.2436C21.5852 30.5695 21.5852 31.0962 21.911 31.4219C22.021 31.5319 23.0443 32.4995 25.0002 32.4995C26.956 32.4995 27.9794 31.532 28.0893 31.4219C28.411 31.1003 28.4101 30.5853 28.0943 30.2586C27.7768 29.932 27.2535 29.9228 26.921 30.2344Z"/>
<path d="M11.6668 16.8087C10.6968 17.1528 10.0001 18.0795 10.0001 19.1662V22.4995C10.0001 23.662 10.7976 24.6419 11.8751 24.9203C12.3209 26.2353 13.5526 29.8011 14.2551 31.2052C15.5784 33.8526 19.3309 38.3327 25.0001 38.3327C30.6692 38.3327 34.4217 33.8527 35.745 31.2052C36.4476 29.801 37.6792 26.2352 38.125 24.9203C39.2025 24.6419 40 23.662 40 22.4995V19.1662C40 18.0796 39.3033 17.1528 38.3333 16.8087V15.8329C38.3333 15.3729 37.9608 14.9996 37.5 14.9996C37.0392 14.9996 36.6667 15.3729 36.6667 15.8329V17.4996C36.6667 17.9596 37.0392 18.3329 37.5 18.3329C37.96 18.3329 38.3333 18.707 38.3333 19.1662V22.4995C38.3333 22.9587 37.96 23.3328 37.5 23.3328C37.1408 23.3328 36.8225 23.562 36.71 23.9028C36.6925 23.9519 35.0517 28.8653 34.255 30.4603C34.1274 30.7136 31.0817 36.6661 25.0001 36.6661C18.9184 36.6661 15.8726 30.7136 15.7451 30.4603C14.9477 28.8653 13.3076 23.952 13.2901 23.9028C13.1768 23.562 12.8593 23.3328 12.5001 23.3328C12.0402 23.3328 11.6668 22.9587 11.6668 22.4995V19.1662C11.6668 18.707 12.0402 18.3329 12.5001 18.3329C12.9609 18.3329 13.3334 17.9596 13.3334 17.4996V15.8328C13.3334 15.3729 12.9609 14.9995 12.5001 14.9995C12.0393 14.9995 11.6668 15.3729 11.6668 15.8328V16.8087Z"/>
<path d="M12.5002 5.83289C12.0393 5.83289 11.6669 6.20622 11.6669 6.66618V12.4995C11.6669 12.8153 11.8452 13.1037 12.1277 13.2453C12.3393 13.3502 17.391 15.8327 25.0001 15.8327C32.6093 15.8327 37.6609 13.3502 37.8725 13.2453C38.155 13.1036 38.3333 12.8153 38.3333 12.4995V6.66628C38.3333 6.20632 37.9609 5.83298 37.5 5.83298C37.0392 5.83298 36.6668 6.20632 36.6668 6.66628V11.9604C35.2884 12.5446 30.9267 14.1662 25.0001 14.1662C19.0735 14.1662 14.7118 12.5446 13.3335 11.9604V6.66628C13.3335 6.20622 12.961 5.83289 12.5002 5.83289Z"/>
</symbol><symbol id="twiter" viewBox="0 0 19 15">
<path d="M19 1.77577C18.2934 2.07692 17.5406 2.27654 16.7556 2.37346C17.5631 1.905 18.1794 1.16885 18.4692 0.281538C17.7163 0.717692 16.8851 1.02577 15.9992 1.19769C15.2843 0.458077 14.2654 0 13.1539 0C10.9974 0 9.26131 1.70077 9.26131 3.78577C9.26131 4.08577 9.28744 4.37423 9.35156 4.64885C6.11325 4.49538 3.24781 2.98731 1.32287 0.69C0.986812 1.25654 0.789688 1.905 0.789688 2.60308C0.789688 3.91385 1.48438 5.07577 2.51988 5.74846C1.89406 5.73692 1.28013 5.56038 0.76 5.28231C0.76 5.29385 0.76 5.30885 0.76 5.32385C0.76 7.16308 2.11019 8.69077 3.88075 9.04269C3.56369 9.12692 3.21812 9.16731 2.8595 9.16731C2.61013 9.16731 2.35837 9.15346 2.12206 9.10269C2.62675 10.6015 4.05888 11.7035 5.76175 11.7392C4.4365 12.7465 2.75381 13.3535 0.932188 13.3535C0.61275 13.3535 0.306375 13.3396 0 13.3015C1.72544 14.3827 3.77031 15 5.9755 15C13.1432 15 17.062 9.23077 17.062 4.23C17.062 4.06269 17.0561 3.90115 17.0478 3.74077C17.8208 3.20769 18.4704 2.54192 19 1.77577Z"/>
</symbol><symbol id="vk" viewBox="0 0 22 22">
<path fill-rule="evenodd" clip-rule="evenodd" d="M14.3733 0H7.62667C1.46667 0 0 1.46667 0 7.62667V14.3733C0 20.5333 1.46667 22 7.62667 22H14.3733C20.5333 22 22 20.5333 22 14.3733V7.62667C22 1.46667 20.5333 0 14.3733 0ZM17.2156 7C17.6788 7 17.7762 7.25815 17.6788 7.60939C17.5444 8.27614 16.6139 9.83809 16.0502 10.742C16.009 10.808 15.9639 10.876 15.9179 10.9454C15.6519 11.3466 15.3556 11.7934 15.618 12.1586C15.698 12.2799 15.8688 12.4609 16.0641 12.6681C16.265 12.881 16.4918 13.1215 16.6727 13.353C17.3306 14.1541 17.8264 14.8299 17.9645 15.2958C18.0908 15.7632 17.872 16 17.4344 16H15.9028C15.4925 16 15.2859 15.7512 14.8396 15.2138C14.6504 14.9859 14.4181 14.7062 14.1089 14.3716C13.2003 13.4231 12.8108 13.3002 12.5837 13.3002C12.2754 13.3002 12.1832 13.3947 12.1832 13.8683V15.3551C12.1832 15.763 12.0627 15.9999 11.0892 15.9999C9.46653 15.9999 7.6833 14.9335 6.41775 12.9663C4.51922 10.0859 4 7.90792 4 7.46882C4 7.22298 4.08752 7 4.52512 7H6.05673C6.44817 7 6.59542 7.18544 6.74223 7.64456C7.4913 10.0066 8.75433 12.0707 9.27354 12.0707C9.46828 12.0707 9.55755 11.9736 9.55755 11.4384V8.99691C9.52245 8.30201 9.29819 8.0015 9.13207 7.77889C9.02948 7.64142 8.94906 7.53366 8.94906 7.38107C8.94906 7.19563 9.09533 7 9.33875 7H11.7456C12.0702 7 12.1832 7.18781 12.1832 7.60939V10.8939C12.1832 11.2451 12.3241 11.368 12.4214 11.368C12.6162 11.368 12.7784 11.2451 13.1354 10.8587C13.9625 9.85801 14.6073 8.45253 14.8783 7.8116C14.9002 7.75977 14.9203 7.70639 14.9405 7.6529C15.0086 7.4719 15.0772 7.28965 15.2184 7.16188C15.3263 7.06428 15.4749 7 15.684 7H17.2156Z" class="st0"/>
</symbol><symbol id="youtube" viewBox="0 0 18 13">
<path d="M17.749 2.12758C17.6546 1.32402 16.9118 0.553475 16.1346 0.450247C11.3956 -0.150082 6.60347 -0.150082 1.86599 0.450247C1.08818 0.553251 0.345406 1.32402 0.250921 2.12758C-0.0836405 5.07259 -0.0836405 7.92808 0.250921 10.8724C0.345406 11.676 1.08818 12.4472 1.86599 12.5498C6.60347 13.1501 11.3958 13.1501 16.1346 12.5498C16.9118 12.4474 17.6546 11.676 17.749 10.8724C18.0837 7.92835 18.0837 5.07259 17.749 2.12758ZM7.49988 9.55913V3.44181L12 6.50058L7.49988 9.55913Z"/>
</symbol></svg>